<svg xmlns="http://www.w3.org/2000/svg" width="64" height="64" viewBox="0 0 24 24" fill="none" stroke="#2563EB" stroke-width="2" stroke-linecap="round" stroke-linejoin="round">
  <path d="M3 14c.8 3.8 3.7 6.7 7.5 7.5"></path>
  <path d="M10.5 21.5c4.3.9 8.9-1.1 11.4-5"></path>
  <path d="M21.9 16.5c.9-4.3-1.1-8.9-5-11.4"></path>
  <path d="M16.5 5.1C12.7 2.3 7.7 2.3 3.9 5.1"></path>
  <path d="M5.1 7.5c3.3-3.3 8.5-3.3 11.8 0"></path>
  <path d="M12 16c1.7 0 3-1.3 3-3s-1.3-3-3-3-3 1.3-3 3 1.3 3 3 3Z"></path>
</svg>